# xmcd
#
# Track frame offsets: 
#        150
#        14454
#        27478
#        43240
#        58843
#        72653
#        87429
#        101086
#        116559
#        131165
#        150366
#        164296
#
# Disc length: 2344 seconds
#
# Revision: 0
# Processed by: cddbd v1.5.2PL0 Copyright (c) Steve Scherf et al.
# Submitted via: ExactAudioCopy v1.3
#
DISCID=aa09260c
DTITLE=Breaking Grass - Warning Signs
DYEAR=2017
DGENRE=Bluegrass
TTITLE0=Cold Rain
TTITLE1=Stay
TTITLE2=Nobody Knows
TTITLE3=Sweet Ava
TTITLE4=Warning Signs
TTITLE5=House of Cards
TTITLE6=The One She Adored
TTITLE7=Short Shorts
TTITLE8=Annie
TTITLE9=Taking and Giving
TTITLE10=Waking Up With You
TTITLE11=Faith Moved A Mountain
EXTD=
EXTT0=
EXTT1=
EXTT2=
EXTT3=
EXTT4=
EXTT5=
EXTT6=
EXTT7=
EXTT8=
EXTT9=
EXTT10=
EXTT11=
PLAYORDER=
